<?xml version="1.0" standalone="no"?>
<!DOCTYPE svg PUBLIC "-//W3C//DTD SVG 20010904//EN"
 "http://www.w3.org/TR/2001/REC-SVG-20010904/DTD/svg10.dtd">
<svg version="1.0" xmlns="http://www.w3.org/2000/svg"
 width="300.000000pt" height="300.000000pt" viewBox="0 0 300.000000 300.000000"
 preserveAspectRatio="xMidYMid meet">
<metadata>
Created by potrace 1.14, written by Peter Selinger 2001-2017
</metadata>
<g transform="translate(0.000000,300.000000) scale(0.100000,-0.100000)"
fill="#000000" stroke="none">
<path d="M1446 2829 c3 -6 -5 -8 -20 -5 -14 3 -28 1 -30 -3 -3 -4 -20 -9 -38
-10 -55 -3 -58 -4 -58 -11 0 -4 -6 -7 -12 -7 -21 -1 -43 -7 -48 -15 -3 -4 -18
-8 -33 -10 -16 -3 -33 -11 -38 -19 -5 -8 -9 -10 -9 -6 0 24 -210 -148 -210
-172 0 -6 -3 -11 -7 -11 -5 0 -21 -20 -36 -45 -16 -25 -33 -45 -39 -45 -5 0
-6 -5 -3 -10 3 -6 -2 -22 -13 -38 -11 -15 -17 -33 -15 -39 3 -7 -3 -20 -11
-29 -9 -8 -14 -20 -11 -25 4 -5 1 -9 -5 -9 -6 0 -8 -4 -5 -10 3 -5 0 -10 -7
-10 -10 0 -10 -2 1 -9 11 -7 10 -11 -5 -20 -12 -6 -14 -11 -5 -11 11 0 11 -3
1 -15 -7 -8 -9 -15 -5 -15 4 0 2 -7 -5 -15 -7 -9 -10 -18 -6 -22 3 -3 6 0 6 7
0 7 3 10 6 7 4 -4 2 -12 -4 -20 -6 -7 -12 -31 -13 -52 -1 -22 -6 -45 -11 -52
-5 -6 -5 -14 0 -17 5 -3 9 -24 10 -46 1 -23 7 -50 13 -62 8 -15 8 -19 0 -14
-6 4 -11 3 -11 -3 0 -5 4 -11 10 -13 5 -1 10 -18 12 -35 1 -18 6 -33 11 -33 4
0 6 -4 3 -9 -3 -5 1 -11 9 -15 8 -3 12 -11 9 -19 -2 -7 2 -27 11 -43 8 -16 15
-35 15 -42 0 -7 5 -10 10 -7 6 4 10 -5 10 -20 0 -15 4 -24 10 -20 6 3 10 -1
10 -9 0 -9 5 -16 10 -16 6 0 10 -6 10 -13 0 -8 9 -22 20 -32 11 -10 20 -24 20
-32 0 -7 5 -13 10 -13 6 0 10 -7 10 -15 0 -7 6 -18 13 -22 16 -10 67 -89 67
-103 0 -6 4 -9 9 -6 8 5 24 -20 18 -27 -1 -1 9 -17 23 -36 13 -19 17 -31 9
-26 -12 8 -12 6 1 -9 17 -21 40 -83 40 -109 0 -10 5 -15 10 -12 6 3 10 1 10
-4 0 -6 -5 -11 -11 -11 -6 0 -7 -5 -2 -12 4 -7 9 -39 9 -72 1 -32 6 -61 11
-65 15 -10 22 -38 12 -48 -6 -6 -6 -20 1 -37 6 -17 6 -25 0 -21 -7 4 -7 -2 0
-19 6 -16 6 -27 0 -31 -6 -4 -10 -11 -10 -16 0 -6 5 -7 12 -3 8 5 9 2 4 -12
-4 -10 -4 -15 0 -11 4 4 13 -1 20 -11 10 -14 10 -18 -3 -23 -24 -8 -25 -41 -2
-57 20 -14 20 -14 -2 -33 -12 -10 -17 -19 -11 -19 7 0 11 -3 11 -7 -3 -21 2
-33 16 -33 9 0 6 -8 -11 -25 l-25 -26 32 -30 c26 -25 30 -32 18 -40 -10 -6
-10 -9 -1 -9 6 0 12 -7 12 -16 0 -21 24 -44 47 -44 15 0 16 -2 3 -10 -12 -8
-11 -10 8 -10 12 0 22 -5 22 -11 0 -5 5 -7 10 -4 5 3 10 1 10 -5 0 -17 46 -81
53 -73 4 3 7 -2 7 -11 0 -13 6 -17 20 -13 11 3 18 2 15 -3 -7 -11 117 -7 134
4 10 6 12 6 7 -2 -4 -7 -1 -12 9 -12 9 0 14 4 10 9 -3 5 3 12 13 15 11 4 24
18 30 31 6 14 16 25 21 25 6 0 7 7 4 17 -4 11 -3 14 5 9 7 -4 12 -2 12 4 0 6
11 15 25 20 14 5 25 15 25 21 0 7 3 10 6 6 8 -7 44 24 44 39 0 7 7 14 15 18 8
3 15 13 15 21 0 10 5 13 13 9 13 -9 -11 26 -28 38 -6 5 -4 8 5 8 13 0 13 1 0
10 -13 8 -12 10 3 10 10 0 15 5 12 10 -3 6 -1 10 5 10 6 0 2 10 -10 22 -17 18
-18 24 -6 37 13 16 32 61 21 49 -11 -11 -45 25 -35 36 8 11 10 17 10 36 0 6 7
10 16 10 8 0 12 5 9 10 -3 6 -2 10 2 10 10 0 9 71 0 87 -4 7 -3 14 2 18 7 4 7
15 0 32 -7 18 -6 30 3 40 6 8 11 31 10 50 -2 26 0 33 10 27 10 -6 10 -4 2 7
-12 15 -11 53 1 82 4 10 5 21 1 24 -3 3 2 12 12 20 9 8 11 12 5 8 -7 -3 -13
-1 -13 4 0 6 4 11 9 11 9 0 26 48 23 63 -1 4 3 7 9 7 5 0 7 5 4 10 -3 6 -1 10
6 10 7 0 10 3 6 6 -3 4 1 13 9 21 8 8 12 19 9 24 -4 5 2 9 11 9 10 0 14 3 11
7 -4 3 0 15 10 25 9 10 13 18 9 18 -4 0 -1 6 6 14 7 8 17 11 22 8 5 -3 6 0 3
5 -4 6 1 20 11 31 45 53 51 62 47 62 -6 0 -3 4 47 64 18 22 26 36 18 31 -8 -5
-2 8 14 30 16 21 23 35 15 30 -8 -5 -5 1 5 13 11 12 15 22 10 22 -5 0 -3 4 3
8 7 4 14 19 16 32 2 13 9 26 16 28 9 3 9 8 -1 20 -10 12 -10 14 0 8 8 -5 12 1
12 23 0 16 5 33 11 37 8 4 7 9 -2 15 -11 7 -11 9 -1 9 7 0 11 4 7 9 -3 5 -2
12 3 15 13 8 5 185 -10 203 -7 9 -8 14 -2 10 6 -3 11 0 11 8 0 8 -5 11 -10 8
-6 -4 -8 2 -5 15 3 11 -1 31 -10 43 -9 14 -11 19 -3 14 11 -6 11 -3 1 16 -7
13 -18 27 -24 31 -8 5 -7 8 2 8 9 0 5 13 -11 43 -13 23 -22 48 -19 56 3 8 0
11 -7 7 -7 -5 -11 1 -11 14 0 12 -4 18 -10 15 -5 -3 -10 1 -10 9 0 9 -5 16
-11 16 -5 0 -7 5 -4 10 3 6 -1 13 -9 16 -9 3 -13 10 -10 15 3 5 -2 12 -10 15
-9 3 -16 10 -16 16 0 5 -25 33 -55 63 -30 29 -55 51 -55 48 0 -2 -18 10 -40
27 -22 18 -46 33 -53 34 -25 6 -47 18 -42 25 2 4 -11 7 -30 6 -18 0 -31 3 -29
7 5 8 -18 12 -45 9 -7 -2 -10 2 -7 7 3 5 -8 9 -24 10 -16 0 -39 6 -51 12 -12
7 -19 7 -15 2 4 -6 -2 -8 -14 -5 -11 3 -17 10 -13 17 4 6 0 5 -9 -2 -13 -10
-17 -10 -21 0 -4 11 -6 11 -6 0 -1 -9 -6 -10 -19 -3 -10 6 -24 6 -32 1 -8 -5
-18 -6 -22 -4 -17 10 -48 13 -42 3z"/>
</g>
</svg>
